ModelForces
version=1
nRows=4
nColumns=158
inDegrees=no

This file contains the forces exerted on a model during a simulation.

A force is a generalized force, meaning that it can be either a force (N) or a torque (Nm).

Units are S.I. units (second, meters, Newtons, ...)
Angles are in degrees.

endheader
time	glut_med1_r	glut_med2_r	glut_med3_r	glut_min1_r	glut_min2_r	glut_min3_r	semimem_r	semiten_r	bifemlh_r	bifemsh_r	sar_r	add_long_r	add_brev_r	add_mag1_r	add_mag2_r	add_mag3_r	tfl_r	pect_r	grac_r	glut_max1_r	glut_max2_r	glut_max3_r	iliacus_r	psoas_r	quad_fem_r	gem_r	peri_r	rect_fem_r	vas_med_r	vas_int_r	vas_lat_r	med_gas_r	lat_gas_r	soleus_r	tib_post_r	flex_dig_r	flex_hal_r	tib_ant_r	per_brev_r	per_long_r	per_tert_r	ext_dig_r	ext_hal_r	glut_med1_l	glut_med2_l	glut_med3_l	glut_min1_l	glut_min2_l	glut_min3_l	semimem_l	semiten_l	bifemlh_l	bifemsh_l	sar_l	add_long_l	add_brev_l	add_mag1_l	add_mag2_l	add_mag3_l	tfl_l	pect_l	grac_l	glut_max1_l	glut_max2_l	glut_max3_l	iliacus_l	psoas_l	quad_fem_l	gem_l	peri_l	rect_fem_l	vas_med_l	vas_int_l	vas_lat_l	med_gas_l	lat_gas_l	soleus_l	tib_post_l	flex_dig_l	flex_hal_l	tib_ant_l	per_brev_l	per_long_l	per_tert_l	ext_dig_l	ext_hal_l	ercspn_r	ercspn_l	intobl_r	intobl_l	extobl_r	extobl_l	femur_lat_meniscii_r.femur_lat_r.force.X	femur_lat_meniscii_r.femur_lat_r.force.Y	femur_lat_meniscii_r.femur_lat_r.force.Z	femur_lat_meniscii_r.femur_lat_r.torque.X	femur_lat_meniscii_r.femur_lat_r.torque.Y	femur_lat_meniscii_r.femur_lat_r.torque.Z	femur_lat_meniscii_r.meniscus_lat_r.force.X	femur_lat_meniscii_r.meniscus_lat_r.force.Y	femur_lat_meniscii_r.meniscus_lat_r.force.Z	femur_lat_meniscii_r.meniscus_lat_r.torque.X	femur_lat_meniscii_r.meniscus_lat_r.torque.Y	femur_lat_meniscii_r.meniscus_lat_r.torque.Z	femur_med_meniscii_r.femur_med_r.force.X	femur_med_meniscii_r.femur_med_r.force.Y	femur_med_meniscii_r.femur_med_r.force.Z	femur_med_meniscii_r.femur_med_r.torque.X	femur_med_meniscii_r.femur_med_r.torque.Y	femur_med_meniscii_r.femur_med_r.torque.Z	femur_med_meniscii_r.meniscus_med_r.force.X	femur_med_meniscii_r.meniscus_med_r.force.Y	femur_med_meniscii_r.meniscus_med_r.force.Z	femur_med_meniscii_r.meniscus_med_r.torque.X	femur_med_meniscii_r.meniscus_med_r.torque.Y	femur_med_meniscii_r.meniscus_med_r.torque.Z	femur_med_tibia_r.tibia_upper_r.force.X	femur_med_tibia_r.tibia_upper_r.force.Y	femur_med_tibia_r.tibia_upper_r.force.Z	femur_med_tibia_r.tibia_upper_r.torque.X	femur_med_tibia_r.tibia_upper_r.torque.Y	femur_med_tibia_r.tibia_upper_r.torque.Z	femur_med_tibia_r.femur_med_r.force.X	femur_med_tibia_r.femur_med_r.force.Y	femur_med_tibia_r.femur_med_r.force.Z	femur_med_tibia_r.femur_med_r.torque.X	femur_med_tibia_r.femur_med_r.torque.Y	femur_med_tibia_r.femur_med_r.torque.Z	femur_lat_tibia_r.tibia_upper_r.force.X	femur_lat_tibia_r.tibia_upper_r.force.Y	femur_lat_tibia_r.tibia_upper_r.force.Z	femur_lat_tibia_r.tibia_upper_r.torque.X	femur_lat_tibia_r.tibia_upper_r.torque.Y	femur_lat_tibia_r.tibia_upper_r.torque.Z	femur_lat_tibia_r.femur_lat_r.force.X	femur_lat_tibia_r.femur_lat_r.force.Y	femur_lat_tibia_r.femur_lat_r.force.Z	femur_lat_tibia_r.femur_lat_r.torque.X	femur_lat_tibia_r.femur_lat_r.torque.Y	femur_lat_tibia_r.femur_lat_r.torque.Z	aACL_R	pACL_R	aPCL_R	pPCL_R	aMCL_R	mMCL_R	pMCL_R	aLCL_R	mLCL_R	pLCL_R	aPCL_L	pPCL_L	aMCL_L	aLCL_L	ground_prescribedForce_-90_fx	ground_prescribedForce_-90_fy	ground_prescribedForce_-90_fz
      0.74307742	      7.54772682	      5.66559887	      6.06454880	      2.65886563	      3.17887059	      3.19264727	      0.00000000	      3.14950999	      3.53139966	      5.15156436	      1.46805711	      5.61312636	      4.14095305	      2.91884485	      2.45365470	      3.98732541	      2.83328054	      2.23865444	      1.36450460	      3.65597456	      5.55585194	      4.14730122	     22.64732459	     12.96654265	      3.62657661	      2.85427161	      4.08995558	    246.64937236	     43.59509680	     87.26824040	     63.43596617	      0.00000000	      0.00000000	     11.42301532	     13.29344875	      2.56549366	      3.04165059	     12.15060107	      3.83317844	      7.81151810	      9.36387129	      7.80147100	      1.68395854	      7.54772682	      5.66559887	      6.06454880	      2.65886563	      3.17887059	      3.19264727	      8.74492467	      4.08311455	      7.68263026	      7.21582638	      1.51970328	      5.61312636	      4.14095305	      2.91884485	      2.45365470	      3.98732541	      4.09693984	      2.23865444	      1.55866059	      3.65597456	      5.55585194	      4.14730122	     22.64732459	     12.96654265	      3.62657661	      2.85427161	      4.08995558	     10.66686374	      6.59249962	      7.56212028	      8.13132376	     13.95309669	      6.47874422	     31.08635882	     42.35921599	      2.58435640	      2.84051966	      8.45156780	      4.33391088	     12.44646592	      2.00583633	      5.36196085	      1.70200170	     25.00592898	     25.00592898	      8.99989165	      8.99989165	     26.80451177	     26.80451177	    206.40213338	      2.99349540	     37.95320730	    -15.41511020	      5.09259643	     83.87408606	   -206.40213338	     -2.99349540	    -37.95320730	      0.18029433	     -7.06852141	     -0.86625499	     67.89290895	    -45.11342111	    -13.53538170	      4.64057310	     -1.23835373	     27.35448446	    -67.89290895	     45.11342111	     13.53538170	      0.60120291	      1.32791857	     -1.36047459	   -601.97618096	     38.20108493	     96.36344375	      0.19442422	     10.49428289	     -2.91660097	    601.97618096	    -38.20108493	    -96.36344375	     38.35385236	    -10.37228634	    243.67682095	    -59.86778729	    -10.69758319	    -17.41087132	      0.38613298	     -2.23447183	      0.04555030	     59.86778729	     10.69758319	     17.41087132	     -7.33450644	      1.47938071	     24.31057678	     46.80228058	     20.41556493	    807.31336618	    394.27917865	     14.37272539	      1.42140891	      0.00000000	      0.00000000	      0.00000000	      0.00000000	      0.00000000	      0.00000000	      0.00000001	      0.00000000	      0.00000000	   -110.00000000	      0.00000000
      0.74586212	      7.54764913	      5.66554533	      6.06449077	      2.65884157	      3.17884456	      3.19261447	      0.00000000	      3.14544374	      3.52493835	      5.14919240	      1.47080712	      5.61307270	      4.14091592	      2.91881747	      2.45363114	      3.98728298	      2.83907065	      2.23863405	      1.36394991	      3.65594004	      5.55579932	      4.14726122	     22.64722753	     12.96643354	      3.62654308	      2.85425592	      4.08989247	    246.41210205	     43.41846079	     86.94907342	     63.24305263	      0.00000000	      0.00000000	     11.46650600	     13.27504021	      2.55009631	      3.02818584	     12.15734711	      3.84276878	      7.83315118	      9.36815854	      7.84318050	      1.70000941	      7.54764913	      5.66554533	      6.06449077	      2.65884157	      3.17884456	      3.19261447	      8.74481133	      4.08307292	      7.68253603	      7.21575962	      1.51968959	      5.61307270	      4.14091592	      2.91881747	      2.45363114	      3.98728298	      4.09691361	      2.23863405	      1.55864631	      3.65594004	      5.55579932	      4.14726122	     22.64722753	     12.96643354	      3.62654308	      2.85425592	      4.08989247	     10.66673552	      6.59243590	      7.56204578	      8.13124407	     13.95279857	      6.47860552	     31.08588064	     42.35902958	      2.58209728	      2.83947738	      8.45147136	      4.33385294	     12.44632262	      2.00581940	      5.36303397	      1.70229400	     25.00570218	     25.00570218	      8.99980275	      8.99980275	     26.80443192	     26.80443192	    206.39841472	      2.86776701	     37.56449055	    -15.25433793	      5.08727767	     83.87351698	   -206.39841472	     -2.86776701	    -37.56449055	      0.17516760	     -7.05153703	     -0.87093012	     68.34254274	    -45.25140031	    -13.67463173	      4.69311609	     -1.24882220	     27.53540354	    -68.34254274	     45.25140031	     13.67463173	      0.60410468	      1.34052517	     -1.36461838	   -592.58826723	     38.05950020	     94.49270310	      0.19845830	     10.32418980	     -2.88510663	    592.58826723	    -38.05950020	    -94.49270310	     37.59887357	    -10.21332349	    239.87733086	    -57.72546460	    -10.29579975	    -16.74205098	      0.37152626	     -2.15231693	      0.04290624	     57.72546460	     10.29579975	     16.74205098	     -7.05295709	      1.42573103	     23.44104338	     46.81573190	     20.42041982	    807.62783640	    394.19016296	     14.06174351	      1.07303392	      0.00000000	      0.00000000	      0.00000000	      0.00000000	      0.00000000	      0.00000000	      0.00000001	      0.00000000	      0.00000000	   -110.00000000	      0.00000000
      0.74864683	      7.54757417	      5.66549368	      6.06443480	      2.65881835	      3.17881946	      3.19258283	      0.00000000	      3.14765236	      3.52781596	      5.15182947	      1.46832686	      5.61302093	      4.14088009	      2.91879105	      2.45360840	      3.98724204	      2.83688632	      2.23861438	      1.36447866	      3.65590674	      5.55574856	      4.14722263	     22.64713388	     12.96632827	      3.62651073	      2.85424079	      4.08983158	    246.58629793	     43.53077899	     87.16745714	     63.35688121	      0.00000000	      0.00000000	     11.45152051	     13.25200281	      2.53505138	      3.01211877	     12.18107870	      3.85007931	      7.85151163	      9.38604338	      7.88613817	      1.71861610	      7.54757417	      5.66549368	      6.06443480	      2.65881835	      3.17881946	      3.19258283	      8.74470198	      4.08303276	      7.68244513	      7.21569521	      1.51967638	      5.61302093	      4.14088009	      2.91879105	      2.45360840	      3.98724204	      4.09688830	      2.23861438	      1.55863253	      3.65590674	      5.55574856	      4.14722263	     22.64713388	     12.96632827	      3.62651073	      2.85424079	      4.08983158	     10.66661183	      6.59237443	      7.56197390	      8.13116718	     13.95251086	      6.47847166	     31.08541928	     42.35884973	      2.57982711	      2.83843377	      8.45137831	      4.33379705	     12.44618435	      2.00580307	      5.36411332	      1.70258751	     25.00548336	     25.00548336	      8.99971698	      8.99971698	     26.80435488	     26.80435488	    206.90118927	      2.87593612	     37.59286045	    -15.26609525	      5.09879522	     84.07791941	   -206.90118927	     -2.87593612	    -37.59286045	      0.17557104	     -7.06587828	     -0.87316791	     68.08811643	    -45.07266062	    -13.62653395	      4.67747888	     -1.24214553	     27.43164346	    -68.08811643	     45.07266062	     13.62653395	      0.60123816	      1.33367640	     -1.35807540	   -599.21625308	     38.26308052	     95.73132921	      0.19727482	     10.44442907	     -2.91086649	    599.21625308	    -38.26308052	    -95.73132921	     38.09680503	    -10.32640291	    242.55988411	    -58.33678564	    -10.39521250	    -16.91041790	      0.37516164	     -2.17471252	      0.04295171	     58.33678564	     10.39521250	     16.91041790	     -7.12380820	      1.44072453	     23.68941915	     46.59640264	     20.18082480	    807.21773712	    393.45670872	     13.59106864	      0.61121037	      0.00000000	      0.00000000	      0.00000000	      0.00000000	      0.00000000	      0.00000000	      0.00000001	      0.00000000	      0.00000000	   -110.00000000	      0.00000000
      0.75226271	      7.54748076	      5.66542931	      6.06436504	      2.65878943	      3.17878817	      3.19254340	      0.00000000	      3.14533128	      3.52459983	      5.14651763	      1.47339289	      5.61295642	      4.14083545	      2.91875814	      2.45358007	      3.98719103	      2.83888902	      2.23858988	      1.36354525	      3.65586524	      5.55568530	      4.14717454	     22.64701719	     12.96619709	      3.62647042	      2.85422193	      4.08975570	    246.34787221	     43.43176087	     86.95149441	     63.24681430	      0.00000000	      0.00000000	     11.47746794	     13.23141097	      2.51866305	      2.99150943	     12.20039068	      3.85921938	      7.87532994	      9.39467914	      7.92972774	      1.74188644	      7.54748076	      5.66542931	      6.06436504	      2.65878943	      3.17878817	      3.19254340	      8.74456572	      4.08298272	      7.68233185	      7.21561495	      1.51965992	      5.61295642	      4.14083545	      2.91875814	      2.45358007	      3.98719103	      4.09685676	      2.23858988	      1.55861535	      3.65586524	      5.55568530	      4.14717454	     22.64701719	     12.96619709	      3.62647042	      2.85422193	      4.08975570	     10.66645768	      6.59229783	      7.56188434	      8.13107137	     13.95215221	      6.47830480	     31.08484437	     42.35862562	      2.57686267	      2.83707661	      8.45126237	      4.33372739	     12.44601203	      2.00578271	      5.36552401	      1.70297035	     25.00521069	     25.00521069	      8.99961011	      8.99961011	     26.80425888	     26.80425888	    205.35645344	      3.13961322	     37.91287456	    -15.40184140	      5.06758799	     83.44618318	   -205.35645344	     -3.13961322	    -37.91287456	      0.18391874	     -7.03648988	     -0.85470857	     67.44456762	    -45.04325915	    -13.51915346	      4.63514241	     -1.23107057	     27.17571486	    -67.44456762	     45.04325915	     13.51915346	      0.60066950	      1.32251312	     -1.35988244	   -595.42176559	     38.18177385	     94.88988545	      0.19843873	     10.37327515	     -2.89726716	    595.42176559	    -38.18177385	    -94.88988545	     37.75796548	    -10.26117981	    241.02369238	    -57.35457494	    -10.26496530	    -16.70224720	      0.37043651	     -2.14108786	      0.04406380	     57.35457494	     10.26496530	     16.70224720	     -7.03602916	      1.41744485	     23.28994620	     47.09989577	     20.78729432	    808.28356678	    395.81556403	     15.23019067	      2.29821265	      0.00000000	      0.00000000	      0.00000000	      0.00000000	      0.00000000	      0.00000000	      0.00000001	      0.00000000	      0.00000000	   -110.00000000	      0.00000000
